<svg version="1.1" xmlns="http://www.w3.org/2000/svg" viewBox="0 0 1374 1145" width="1374" height="1145" xmlns:c2pa="http://c2pa.org/manifest"><metadata><c2pa:manifest>AAAWgmp1bWIAAAAeanVtZGMycGEAEQAQgAAAqgA4m3EDYzJwYQAAABZcanVtYgAAAEdqdW1kYzJtYQARABCAAACqADibcQN1cm46YzJwYTo0NDhlMjEwZi01Y2JmLTQ1YWEtOGY0My0xNjllM2FhMDk4NzAAAAADl2p1bWIAAAApanVtZGMyYXMAEQAQgAAAqgA4m3EDYzJwYS5hc3NlcnRpb25zAAAAALxqdW1iAAAARGp1bWRjYm9yABEAEIAAAKoAOJtxE2MycGEuaW5ncmVkaWVudC52MwAAAAAYYzJzaB7xu2TY621UTa24SHOcY7AAAABwY2JvcqNpZGM6Zm9ybWF0bWltYWdlL3N2Zyt4bWxqaW5zdGFuY2VJRHgseG1wOmlpZDo0NThhMjAzYy1lNTNjLTQ4OTYtYjczYy0zY2EzYTczNzM4NzBscmVsYXRpb25zaGlwaHBhcmVudE9mAAAB4mp1bWIAAABBanVtZGNib3IAEQAQgAAAqgA4m3ETYzJwYS5hY3Rpb25zLnYyAAAAABhjMnNohu2ZleaqY8vkWVflHwE3EwAAAZljYm9yomdhY3Rpb25zgqJmYWN0aW9ua2MycGEub3BlbmVkanBhcmFtZXRlcnOha2luZ3JlZGllbnRzgaJjdXJseC1zZWxmI2p1bWJmPWMycGEuYXNzZXJ0aW9ucy9jMnBhLmluZ3JlZGllbnQudjNkaGFzaFggdKUM5jjNdSIdkxp80se71AHPfNfs/C5kVT7bo50oQ8ikZmFjdGlvbngdY29tLmFudGhyb3BpYy5jbGF1ZGUucHJvdmlkZWRqcGFyYW1ldGVyc6F4H2NvbS5hbnRocm9waWMub3JpZ2luLWNvbmZpZGVuY2VndW5rbm93bmtkZXNjcmlwdGlvbnhmQ2xhdWRlIHByb3ZpZGVkIHRoaXMgZmlsZSBhdCB0aGUgcmVxdWVzdCBvZiBhIHVzZXIgYW5kIG1heSBoYXZlIGNyZWF0ZWQgb3IgbW9kaWZpZWQgdGhlIGZpbGUgY29udGVudHMubXNvZnR3YXJlQWdlbnShZG5hbWVmQ2xhdWRlcmFsbEFjdGlvbnNJbmNsdWRlZPUAAADIanVtYgAAAEBqdW1kY2JvcgARABCAAACqADibcRNjMnBhLmhhc2guZGF0YQAAAAAYYzJzaNI7qIugZtCx/yQqbamEdFIAAACAY2JvcqVjYWxnZnNoYTI1NmNwYWRNAAAAAAAAAAAAAAAAAGRoYXNoWCCGL5Jyw2o24TOzxavW2d04wmw7l8ndAvch2pdCYf7lVWRuYW1lbmp1bWJmIG1hbmlmZXN0amV4Y2x1c2lvbnOBomVzdGFydBioZmxlbmd0aBkeBAAAAj5qdW1iAAAAJ2p1bWRjMmNsABEAEIAAAKoAOJtxA2MycGEuY2xhaW0udjIAAAACD2Nib3KlY2FsZ2ZzaGEyNTZpc2lnbmF0dXJleE1zZWxmI2p1bWJmPS9jMnBhL3VybjpjMnBhOjQ0OGUyMTBmLTVjYmYtNDVhYS04ZjQzLTE2OWUzYWEwOTg3MC9jMnBhLnNpZ25hdHVyZWppbnN0YW5jZUlEeCx4bXA6aWlkOjgwNTk2Y2M5LTMzZDUtNDJlZi1iMGNmLTI5MmFiNTVmODI2OHJjcmVhdGVkX2Fzc2VydGlvbnODomN1cmx4LXNlbGYjanVtYmY9YzJwYS5hc3NlcnRpb25zL2MycGEuaW5ncmVkaWVudC52M2RoYXNoWCB0pQzmOM11Ih2TGnzSx7vUAc981+z8LmRVPtujnShDyKJjdXJseCpzZWxmI2p1bWJmPWMycGEuYXNzZXJ0aW9ucy9jMnBhLmFjdGlvbnMudjJkaGFzaFggh9QslDeySiiuz2n4+G/9/p2IGvwWxKsx8rb5J9yNbtuiY3VybHgpc2VsZiNqdW1iZj1jMnBhLmFzc2VydGlvbnMvYzJwYS5oYXNoLmRhdGFkaGFzaFggXLYemggmzn+c8DaxX9ZEE2o6bAbTbVy5uojlhoOAglR0Y2xhaW1fZ2VuZXJhdG9yX2luZm+jZG5hbWVvQW50aHJvcGljIEZpbGVzZ3ZlcnNpb25lMS4wLjBrc3BlY1ZlcnNpb25lMi40LjAAABA4anVtYgAAAChqdW1kYzJjcwARABCAAACqADibcQNjMnBhLnNpZ25hdHVyZQAAABAIY2JvctKEWQISogEmGCFZAgowggIGMIIBjaADAgECAhRA5aAK7sI50L64g/oGQgU9Z1UTADAKBggqhkjOPQQDAzBJMRcwFQYDVQQKEw5BbnRocm9waWMsIFBCQzEuMCwGA1UEAxMlQW50aHJvcGljIENvbnRlbnQgQ3JlZGVudGlhbHMgUm9vdCBDQTAeFw0yNjA4MDcxODQzNTZaFw0yODA4MDYxOTQzNTZaMEQxFzAVBgNVBAoTDkFudGhyb3BpYywgUEJDMSkwJwYDVQQDEyBBbnRocm9waWMgQ2xhdWRlIENvbnRlbnQgU2lnbmluZzBZMBMGByqGSM49AgEGCCqGSM49AwEHA0IABJh6CmvLUBgFFNU0vUKlOVtE6djd17L5SuwX0LemFisBM3dkd/3cyjxFA3Qo5S46fX0/ihY0VZ7mfb9KF703t5OjWDBWMA4GA1UdDwEB/wQEAwIHgDAVBgNVHSUEDjAMBgorBgEEAYPoXgIBMAwGA1UdEwEB/wQCMAAwHwYDVR0jBBgwFoAUzlHiBIFOZFsj+OPEz5o+nMHXXMIwCgYIKoZIzj0EAwMDZwAwZAIwMXMdFJ4BetLLVY7ORuE9noqbbAZOZn/aArXyTwFAZfKrPzxF2vPoJNf1+UCdg1XGAjBwX1zd9WGqYkqmL5SFqw1QySjr1zJfpJM9+1rdDwSPLMOPOjKuiXjoU/pUUeG9RwmhY3BhZFkNngAAAAAAAAAAAAAAAAAAAAAAAAAAAAAAAAAAAAAAAAAAAAAAAAAAAAAAAAAAAAAAAAAAAAAAAAAAAAAAAAAAAAAAAAAAAAAAAAAAAAAAAAAAAAAAAAAAAAAAAAAAAAAAAAAAAAAAAAAAAAAAAAAAAAAAAAAAAAAAAAAAAAAAAAAAAAAAAAAAAAAAAAAAAAAAAAAAAAAAAAAAAAAAAAAAAAAAAAAAAAAAAAAAAAAAAAAAAAAAAAAAAAAAAAAAAAAAAAAAAAAAAAAAAAAAAAAAAAAAAAAAAAAAAAAAAAAAAAAAAAAAAAAAAAAAAAAAAAAAAAAAAAAAAAAAAAAAAAAAAAAAAAAAAAAAAAAAAAAAAAAAAAAAAAAAAAAAAAAAAAAAAAAAAAAAAAAAAAAAAAAAAAAAAAAAAAAAAAAAAAAAAAAAAAAAAAAAAAAAAAAAAAAAAAAAAAAAAAAAAAAAAAAAAAAAAAAAAAAAAAAAAAAAAAAAAAAAAAAAAAAAAAAAAAAAAAAAAAAAAAAAAAAAAAAAAAAAAAAAAAAAAAAAAAAAAAAAAAAAAAAAAAAAAAAAAAAAAAAAAAAAAAAAAAAAAAAAAAAAAAAAAAAAAAAAAAAAAAAAAAAAAAAAAAAAAAAAAAAAAAAAAAAAAAAAAAAAAAAAAAAAAAAAAAAAAAAAAAAAAAAAAAAAAAAAAAAAAAAAAAAAAAAAAAAAAAAAAAAAAAAAAAAAAAAAAAAAAAAAAAAAAAAAAAAAAAAAAAAAAAAAAAAAAAAAAAAAAAAAAAAAAAAAAAAAAAAAAAAAAAAAAAAAAAAAAAAAAAAAAAAAAAAAAAAAAAAAAAAAAAAAAAAAAAAAAAAAAAAAAAAAAAAAAAAAAAAAAAAAAAAAAAAAAAAAAAAAAAAAAAAAAAAAAAAAAAAAAAAAAAAAAAAAAAAAAAAAAAAAAAAAAAAAAAAAAAAAAAAAAAAAAAAAAAAAAAAAAAAAAAAAAAAAAAAAAAAAAAAAAAAAAAAAAAAAAAAAAAAAAAAAAAAAAAAAAAAAAAAAAAAAAAAAAAAAAAAAAAAAAAAAAAAAAAAAAAAAAAAAAAAAAAAAAAAAAAAAAAAAAAAAAAAAAAAAAAAAAAAAAAAAAAAAAAAAAAAAAAAAAAAAAAAAAAAAAAAAAAAAAAAAAAAAAAAAAAAAAAAAAAAAAAAAAAAAAAAAAAAAAAAAAAAAAAAAAAAAAAAAAAAAAAAAAAAAAAAAAAAAAAAAAAAAAAAAAAAAAAAAAAAAAAAAAAAAAAAAAAAAAAAAAAAAAAAAAAAAAAAAAAAAAAAAAAAAAAAAAAAAAAAAAAAAAAAAAAAAAAAAAAAAAAAAAAAAAAAAAAAAAAAAAAAAAAAAAAAAAAAAAAAAAAAAAAAAAAAAAAAAAAAAAAAAAAAAAAAAAAAAAAAAAAAAAAAAAAAAAAAAAAAAAAAAAAAAAAAAAAAAAAAAAAAAAAAAAAAAAAAAAAAAAAAAAAAAAAAAAAAAAAAAAAAAAAAAAAAAAAAAAAAAAAAAAAAAAAAAAAAAAAAAAAAAAAAAAAAAAAAAAAAAAAAAAAAAAAAAAAAAAAAAAAAAAAAAAAAAAAAAAAAAAAAAAAAAAAAAAAAAAAAAAAAAAAAAAAAAAAAAAAAAAAAAAAAAAAAAAAAAAAAAAAAAAAAAAAAAAAAAAAAAAAAAAAAAAAAAAAAAAAAAAAAAAAAAAAAAAAAAAAAAAAAAAAAAAAAAAAAAAAAAAAAAAAAAAAAAAAAAAAAAAAAAAAAAAAAAAAAAAAAAAAAAAAAAAAAAAAAAAAAAAAAAAAAAAAAAAAAAAAAAAAAAAAAAAAAAAAAAAAAAAAAAAAAAAAAAAAAAAAAAAAAAAAAAAAAAAAAAAAAAAAAAAAAAAAAAAAAAAAAAAAAAAAAAAAAAAAAAAAAAAAAAAAAAAAAAAAAAAAAAAAAAAAAAAAAAAAAAAAAAAAAAAAAAAAAAAAAAAAAAAAAAAAAAAAAAAAAAAAAAAAAAAAAAAAAAAAAAAAAAAAAAAAAAAAAAAAAAAAAAAAAAAAAAAAAAAAAAAAAAAAAAAAAAAAAAAAAAAAAAAAAAAAAAAAAAAAAAAAAAAAAAAAAAAAAAAAAAAAAAAAAAAAAAAAAAAAAAAAAAAAAAAAAAAAAAAAAAAAAAAAAAAAAAAAAAAAAAAAAAAAAAAAAAAAAAAAAAAAAAAAAAAAAAAAAAAAAAAAAAAAAAAAAAAAAAAAAAAAAAAAAAAAAAAAAAAAAAAAAAAAAAAAAAAAAAAAAAAAAAAAAAAAAAAAAAAAAAAAAAAAAAAAAAAAAAAAAAAAAAAAAAAAAAAAAAAAAAAAAAAAAAAAAAAAAAAAAAAAAAAAAAAAAAAAAAAAAAAAAAAAAAAAAAAAAAAAAAAAAAAAAAAAAAAAAAAAAAAAAAAAAAAAAAAAAAAAAAAAAAAAAAAAAAAAAAAAAAAAAAAAAAAAAAAAAAAAAAAAAAAAAAAAAAAAAAAAAAAAAAAAAAAAAAAAAAAAAAAAAAAAAAAAAAAAAAAAAAAAAAAAAAAAAAAAAAAAAAAAAAAAAAAAAAAAAAAAAAAAAAAAAAAAAAAAAAAAAAAAAAAAAAAAAAAAAAAAAAAAAAAAAAAAAAAAAAAAAAAAAAAAAAAAAAAAAAAAAAAAAAAAAAAAAAAAAAAAAAAAAAAAAAAAAAAAAAAAAAAAAAAAAAAAAAAAAAAAAAAAAAAAAAAAAAAAAAAAAAAAAAAAAAAAAAAAAAAAAAAAAAAAAAAAAAAAAAAAAAAAAAAAAAAAAAAAAAAAAAAAAAAAAAAAAAAAAAAAAAAAAAAAAAAAAAAAAAAAAAAAAAAAAAAAAAAAAAAAAAAAAAAAAAAAAAAAAAAAAAAAAAAAAAAAAAAAAAAAAAAAAAAAAAAAAAAAAAAAAAAAAAAAAAAAAAAAAAAAAAAAAAAAAAAAAAAAAAAAAAAAAAAAAAAAAAAAAAAAAAAAAAAAAAAAAAAAAAAAAAAAAAAAAAAAAAAAAAAAAAAAAAAAAAAAAAAAAAAAAAAAAAAAAAAAAAAAAAAAAAAAAAAAAAAAAAAAAAAAAAAAAAAAAAAAAAAAAAAAAAAAAAAAAAAAAAAAAAAAAAAAAAAAAAAAAAAAAAAAAAAAAAAAAAAAAAAAAAAAAAAAAAAAAAAAAAAAAAAAAAAAAAAAAAAAAAAAAAAAAAAAAAAAAAAAAAAAAAAAAAAAAAAAAAAAAAAAAAAAAAAAAAAAAAAAAAAAAAAAAAAAAAAAAAAAAAAAAAAAAAAAAAAAAAAAAAAAAAAAAAAAAAAAAAAAAAAAAAAAAAAAAAAAAAAAAAAAAAAAAAAAAAAAAAAAAAAAAAAAAAAAAAAAAAAAAAAAAAAAAAAAAAAAAAAAAAAAAAAAAAAAAAAAAAAAAAAAAAAAAAAAAAAAAAAAAAAAAAAAAAAAAAAAAAAAAAAAAAAAAAAAAAAAAAAAAAAAAAAAAAAAAAAAAAAAAAAAAAAAAAAAAAAAAAAAAAAAAAAAAAAAAAAAAAAAAAAAAAAAAAAAAAAAAAAAAAAAAAAAAAAAAAAAAAAAAAAAAAAAAAAAAAAAAAAAAAAAAAAAAAAAAAAAAAAAAAAAAAAAAAAAAAAAAAAAAAAAAAAAAAAAAAAAAAAAAAAAAAAAAAAAAAAAAAAAAAAAAAAAAAAAAAAAAAAAAAAAAAAAAAAAAAAAAAAAAAAAAAAAAAAAAAAAAAAAAAAAAAAAAAAAAAAAAAAAAAAAAAAAAAAAAAAAAAAAAAAAAAAAAAAAAAAAAAAAAAAAAAAAAAAAAAAAAAAAAAAAAAAAAAAAAAAAAAAAAAAAAAAAAAAAAAAAAAAAAAAAAAAAAAAAAAAAAAAAAAAAAAAAAAAAAAAAAAAAAAAAAAAAAAAAAAAAAAAAAAAAAAAAAAAAAAAAAAAAAAAAAAAAAAAAAAAAAAAAAAAAAAAAAAAAAAAAAAAAAAAAAAAAAAAAAAAAAAAAAAAAAAAAAAAAAAAAAAAAAAAAAAAAAAAAAAAAAAAAAAAAAAAAAAAAAAAAAAAAAAAAAAAAAAAAAAAAAAAAAAAAAAAAAAAAAAAAAAAAAAAAAAAAAAAAAAAAAAAAAAAAAAAAAAAAAAAAAAAAAAAAAAAAAAAAAAAAAAAAAAAAAAAAAAAAAAAAAAAAAAAAAAAAAAAAAAAAAAAAAAAAAAAAAAAAAAAAAAAAAAAAAAAAAAAAAAAAAAAAAAAAAAAAAAAAAAAAAAAAAAAAAAAAAAAAAAAAAAAAAAAAAAAAAAAAAAAAAAAAAAAAAAAAAAAAAAAAAAAAAAAAAAAAAAAAAAAAAAAAAAAAAAAAAAAAAAAAAAAAAAAAAAAAAAAAAAAAAAAAAAAAAAAAAAAAAAAAAAAAAAAAAAAAAAAAAAAAAAAAAAAAAAAAAAAAAAAAAAAAAAAAAAAAAAAAAAAAAAAAAAAAAAAAAAAAAAAAAAAAAAAAAAAAAAAAAAAAAAAAAAAAAAAAAAAAAAAAAAAAAAAAAAAAAAAAAAAAAAAAAAAAAAAAAAAAAAAAAAAAAAAAAAAAAAAAAAAAAAAAAAAAAAAAAAAAAAAAAAAAAAAAAAAAAAAAAAAAAAAAAAAAAAAAAAAAAAAAAAAAAAAAAAAAAAAAAAAAAAAPZYQC5L8CWV4ehTxsGAs9aWm9az67f6g/OIcf6mxrm8FuPROXDiF6E6e0LXDcr/hUlMIgTMPm/4ozqh3Ocq9zhP/YM=</c2pa:manifest></metadata><path d="M1046.47,437.98 C1012.20,557.93 974.38,675.20 939.41,794.58 C1037.06,757.33 1157.32,694.00 1205.59,607.80 C1269.58,493.53 1154.69,412.93 1078.50,376.53 L1080.79,367.51 L1140.50,376.50 L1131.50,325.00 C1226.93,361.22 1375.94,463.76 1313.43,606.75 C1247.36,757.88 971.78,862.57 775.96,893.25 L704.10,775.75 C673.17,725.93 640.41,675.25 610.80,626.03 L749.75,560.12 C752.28,558.92 755.00,558.11 757.55,556.90 C758.88,556.72 758.87,557.33 759.10,557.68 L807.86,631.93 L835.48,542.22 C835.55,542.00 836.79,540.96 836.92,540.54 C907.76,507.58 977.46,472.68 1046.47,437.98 Z" fill="#A855F7" fill-rule="nonzero"/><path d="M852.00,286.75 L826.87,316.84 C694.93,316.91 586.16,343.51 489.25,377.90 C385.21,416.39 261.99,479.36 198.25,556.59 C92.65,684.53 209.93,776.07 325.75,809.91 C397.48,831.80 485.22,838.08 573.74,842.96 C500.10,862.67 392.49,856.23 316.75,842.91 C215.38,825.07 90.81,783.49 63.46,693.25 C36.62,604.71 121.80,522.90 167.25,488.15 C280.63,401.46 437.67,336.73 601.75,301.55 C673.36,287.07 769.49,274.21 852.00,286.75 Z" fill="#3ddc84" fill-rule="nonzero"/><g><path d="M610.80,626.03 L609.56,626.03 L586.00,589.06 L573.95,631.34 C573.81,631.80 572.13,632.49 572.00,632.92 L372.22,729.48 C372.02,729.58 370.63,729.41 370.47,729.48 C405.70,616.83 443.00,505.19 479.62,394.06 C529.55,384.92 581.07,375.81 632.71,367.93 C674.38,429.12 715.32,493.32 757.55,554.59 L757.55,556.90 C755.00,558.11 752.28,558.92 749.75,560.12 L610.80,626.03 Z" fill="#3ddc84" fill-rule="nonzero"/><path d="M572.00,632.92 C574.12,633.59 571.81,638.82 571.53,639.75 C552.63,704.06 533.34,768.90 513.91,832.43 C455.06,829.77 395.12,821.34 344.90,808.07 C353.22,781.88 361.48,754.88 370.47,729.48 C370.63,729.41 372.02,729.58 372.22,729.48 L572.00,632.92 Z" fill="#A855F7" fill-rule="nonzero"/></g><path d="M836.92,540.54 C854.02,479.06 875.06,416.97 893.56,354.96 L800.00,370.00 C885.88,265.95 977.05,165.86 1067.81,67.46 C1086.61,166.40 1107.75,263.37 1126.00,363.00 L1071.76,354.38 L1047.98,436.31 L1046.47,437.98 C977.46,472.68 907.76,507.58 836.92,540.54 Z" fill="#3ddc84" fill-rule="nonzero"/><path d="M79.56,750.50 C198.93,874.07 503.33,886.81 718.74,840.04 C729.62,858.11 743.62,878.76 752.53,898.00 C567.94,925.08 331.38,918.37 194.25,853.25 C146.71,830.68 101.19,798.43 79.56,750.50 Z" fill="#A855F7" fill-rule="nonzero"/><path d="M1245.75,944.54 C1303.16,958.51 1305.85,1024.39 1249.16,1040.91 C1223.89,1048.28 1182.92,1047.88 1159.92,1039.00 C1111.81,1020.43 1115.64,961.22 1164.42,946.08 C1186.84,939.13 1221.76,938.70 1245.75,944.54 Z M1240.25,974.40 C1226.32,964.95 1189.18,964.96 1175.25,974.48 C1160.94,984.26 1161.59,1004.14 1176.53,1012.75 C1194.10,1022.87 1235.61,1021.66 1246.26,1006.72 C1254.75,994.81 1250.34,981.25 1240.25,974.40 Z" fill="#A855F7" fill-rule="nonzero"/><path d="M369.86,951.99 C401.39,969.23 403.60,1014.48 372.73,1032.87 C331.54,1057.41 244.60,1050.18 241.87,996.25 C238.96,938.64 326.90,928.51 369.86,951.99 Z M330.25,968.03 C308.52,965.14 284.89,969.06 279.56,985.53 C274.53,1001.12 285.52,1012.46 295.88,1016.03 C316.08,1022.99 351.37,1019.33 356.62,1001.88 C362.97,980.81 347.18,970.28 330.25,968.03 Z" fill="#3ddc84" fill-rule="nonzero"/><path d="M876.75,942.62 L972.25,942.50 L972.25,967.75 L885.25,968.25 C877.49,968.38 876.36,980.56 887.25,980.94 C923.61,982.20 972.39,974.76 979.17,1005.25 C984.47,1029.07 962.29,1043.66 941.28,1044.00 L841.00,1044.00 L841.00,1019.56 C868.51,1018.07 900.99,1019.29 930.42,1019.04 C943.82,1018.93 943.39,1006.19 933.75,1005.84 C895.29,1004.42 834.26,1013.56 840.33,969.25 C842.41,954.05 860.27,942.64 876.75,942.62 Z" fill="#A855F7" fill-rule="nonzero"/><path d="M86.25,943.00 L120.42,943.00 L195.00,1007.14 L195.00,943.25 L230.25,943.25 L230.25,1043.75 L189.74,1044.01 L120.75,984.40 L120.75,1043.75 L86.25,1043.75 L86.25,943.00 Z" fill="#3ddc84" fill-rule="nonzero"/><path d="M1116.25,942.75 L1116.25,967.25 L1030.00,967.25 L1030.00,981.25 L1101.75,981.25 L1101.75,1005.00 L1030.25,1005.00 L1030.25,1018.75 L1116.50,1018.75 L1116.50,1043.75 L992.50,1043.75 L992.50,942.75 L1116.25,942.75 Z" fill="#A855F7" fill-rule="nonzero"/><path d="M629.75,942.75 C634.75,942.73 670.36,941.24 671.52,943.32 L671.25,967.25 L586.00,967.25 L586.00,981.25 L657.25,981.25 L657.25,1005.25 L586.25,1005.25 L586.25,1018.75 L672.00,1018.75 L672.00,1043.75 L549.75,1043.75 L549.75,943.01 L629.75,942.75 Z" fill="#3ddc84" fill-rule="nonzero"/><path d="M387.79,943.00 L431.46,943.00 L465.00,974.59 L498.32,943.00 L542.80,943.00 L490.50,992.34 C505.16,1008.86 523.25,1024.06 538.82,1038.93 C539.36,1039.44 543.45,1044.00 541.94,1044.00 L498.94,1044.00 L464.90,1011.93 L430.70,1044.00 L388.11,1044.00 C388.11,1044.00 387.53,1042.50 387.53,1042.50 L439.50,993.34 C424.15,975.53 404.44,960.43 387.79,943.00 Z" fill="#3ddc84" fill-rule="nonzero"/><g><path d="M689.00,1070.91 L689.00,1084.64 C485.80,1084.20 290.30,1084.27 86.00,1083.34 L86.00,1073.48 C86.23,1073.10 88.18,1072.56 88.25,1072.56 L530.25,1070.91 L689.00,1070.91 Z" fill="#3ddc84" fill-rule="nonzero"/><path d="M689.00,1084.64 L689.00,1070.91 L1228.25,1072.15 L1286.75,1072.75 L1287.03,1082.35 L1285.75,1083.36 L689.00,1084.64 Z" fill="#A855F7" fill-rule="nonzero"/></g><path d="M685.50,943.00 L721.25,943.00 L721.25,1017.25 L800.75,1017.25 L800.75,1044.00 L685.50,1044.00 L685.50,943.00 Z" fill="#3ddc84" fill-rule="nonzero"/></svg>